HIERARCHY
ROOT Hips
{
	OFFSET 0.000000 0.000000 0.000000 
	CHANNELS 6 Xposition Yposition Zposition Zrotation Yrotation Xrotation
	JOINT LeftUpLeg
	{
		OFFSET 1.363060 -1.794630 0.839290 
		CHANNELS 3 Zrotation Yrotation Xrotation
		JOINT LeftLeg
		{
			OFFSET 2.448110 -6.726130 0.000000 
			CHANNELS 3 Zrotation Yrotation Xrotation
			JOINT LeftFoot
			{
				OFFSET 2.562200 -7.039590 0.000000 
				CHANNELS 3 Zrotation Yrotation Xrotation
				JOINT LeftToeBase
				{
					OFFSET 0.157640 -0.433110 2.322550 
					CHANNELS 3 Zrotation Yrotation Xrotation
					End Site
					{
						OFFSET 0.000000 0.000000 0.000000 
					}
				}
			}
		}
	}
	JOINT RightUpLeg
	{
		OFFSET -1.305520 -1.794630 0.839290 
		CHANNELS 3 Zrotation Yrotation Xrotation
		JOINT RightLeg
		{
			OFFSET -2.542530 -6.985550 0.000000 
			CHANNELS 3 Zrotation Yrotation Xrotation
			JOINT RightFoot
			{
				OFFSET -2.568260 -7.056230 0.000000 
				CHANNELS 3 Zrotation Yrotation Xrotation
				JOINT RightToeBase
				{
					OFFSET -0.164730 -0.452590 2.363150 
					CHANNELS 3 Zrotation Yrotation Xrotation
					End Site
					{
						OFFSET 0.000000 0.000000 0.000000 
					}
				}
			}
		}
	}
	JOINT Spine
	{
		OFFSET 0.028270 2.035590 -0.193380 
		CHANNELS 3 Zrotation Yrotation Xrotation
		JOINT Spine1
		{
			OFFSET 0.056720 2.048850 -0.042750 
			CHANNELS 3 Zrotation Yrotation Xrotation
			JOINT Neck1
			{
				OFFSET -0.054170 1.746240 0.172020 
				CHANNELS 3 Zrotation Yrotation Xrotation
				JOINT Head
				{
					OFFSET 0.104070 1.761360 -0.123970 
					CHANNELS 3 Zrotation Yrotation Xrotation
					End Site
					{
						OFFSET 0.000000 0.000000 0.000000 
					}
				}
			}
			JOINT LeftArm
			{
				OFFSET 3.362410 1.200890 -0.311210 
				CHANNELS 3 Zrotation Yrotation Xrotation
				JOINT LeftForeArm
				{
					OFFSET 4.983000 -0.000000 -0.000000 
					CHANNELS 3 Zrotation Yrotation Xrotation
					JOINT LeftHand
					{
						OFFSET 3.483560 -0.000000 -0.000000 
						CHANNELS 3 Zrotation Yrotation Xrotation
						JOINT LeftHandIndex1
						{
							OFFSET 0.715260 -0.000000 -0.000000 
							CHANNELS 3 Zrotation Yrotation Xrotation
							End Site
							{
								OFFSET 0.000000 0.000000 0.000000 
							}
						}
					}
				}
			}
			JOINT RightArm
			{
				OFFSET -3.136600 1.374050 -0.404650 
				CHANNELS 3 Zrotation Yrotation Xrotation
				JOINT RightForeArm
				{
					OFFSET -5.241900 -0.000000 -0.000000 
					CHANNELS 3 Zrotation Yrotation Xrotation
					JOINT RightHand
					{
						OFFSET -3.444170 -0.000000 -0.000000 
						CHANNELS 3 Zrotation Yrotation Xrotation
						JOINT RightHandIndex1
						{
							OFFSET -0.622530 -0.000000 -0.000000 
							CHANNELS 3 Zrotation Yrotation Xrotation
							End Site
							{
								OFFSET 0.000000 0.000000 0.000000 
							}
						}
					}
				}
			}
		}
	}
}
MOTION
Frames: 10
Frame Time: 0.041667
18.489933 17.894255 -11.661910 0.930480 -46.655220 1.374657 -16.666429 -5.961552 -8.447493 0.227960 7.903419 23.799892 0.223475 0.114148 -6.971178 0.075000 -1.766300 -4.860300 19.676188 3.775555 -7.316633 -2.228433 -9.791283 29.714382 0.542070 -5.455319 -10.893554 -0.033500 1.181900 -3.249300 1.584046 0.325773 -0.429465 -0.333018 0.116435 -3.585361 4.866592 -4.478101 18.557526 3.344000 -2.614100 13.666400 -85.916077 3.703372 27.201569 14.286613 -20.064741 -3.047616 -1.362969 -1.778793 13.432015 -7.125000 0.000000 0.000000 83.817395 -4.597751 15.942959 -15.153652 22.416097 -3.168027 0.418382 -0.202674 7.039025 7.125000 0.000000 0.000000 
18.488231 17.892053 -11.660209 0.927911 -46.702975 1.348596 -16.674978 -6.043962 -8.365580 0.222201 7.895943 23.776418 0.204364 0.229548 -6.968591 0.059300 -1.571300 -4.322300 19.680705 3.822212 -7.281332 -2.234473 -9.801900 29.748808 0.549292 -5.493373 -10.919873 -0.037200 1.244900 -3.422900 1.573642 0.352985 -0.416378 -0.364887 0.126683 -3.549623 4.964914 -4.509635 18.504738 3.400100 -2.624500 13.643800 -85.826806 3.482183 27.370660 14.141429 -19.843368 -2.981404 -1.361105 -1.763645 13.266888 -7.125000 0.000000 0.000000 83.861908 -4.535965 15.707911 -15.112173 22.364139 -3.151894 0.411267 -0.209097 7.275048 7.125000 0.000000 0.000000 
18.486630 17.890051 -11.658407 0.992747 -46.727976 1.317773 -16.722312 -6.239998 -8.280152 0.212510 7.884645 23.741645 0.177419 0.392545 -6.971499 0.041100 -1.308200 -3.597200 19.624721 3.880416 -7.289915 -2.238993 -9.810944 29.774977 0.550157 -5.499348 -10.927685 -0.035300 1.212600 -3.334100 1.552933 0.377318 -0.399867 -0.382929 0.137394 -3.472669 5.093262 -4.542441 18.517363 3.473200 -2.633400 13.673300 -85.857127 3.565758 27.247438 14.260045 -20.021205 -3.036461 -1.348626 -1.765095 13.413351 -7.125000 0.000000 0.000000 83.916648 -4.439288 15.473263 -15.066113 22.305825 -3.133882 0.404623 -0.214910 7.478352 7.125000 0.000000 0.000000 
18.485729 17.888049 -11.658407 0.891409 -46.732720 1.370365 -16.642056 -6.422201 -8.188196 0.207889 7.880425 23.727558 0.172498 0.437868 -7.014442 0.031700 -1.149200 -3.159500 19.706444 3.860543 -7.278733 -2.241385 -9.814012 29.786526 0.550076 -5.496062 -10.914501 -0.039400 1.281900 -3.524900 1.560852 0.381675 -0.406240 -0.414610 0.138674 -3.486166 5.104168 -4.509719 18.641445 3.492300 -2.624800 13.742400 -85.946717 3.759841 26.982721 14.392688 -20.219640 -3.097317 -1.342635 -1.766852 13.657126 -7.125000 0.000000 0.000000 83.912990 -4.459950 15.561517 -15.065249 22.301615 -3.132843 0.408691 -0.212641 7.443596 7.125000 0.000000 0.000000 
18.486129 17.887448 -11.658207 0.859711 -46.739505 1.378563 -16.616018 -6.365188 -8.198409 0.208506 7.876736 23.718331 0.189121 0.329464 -6.991243 0.028800 -1.095500 -3.011700 19.725557 3.858676 -7.266003 -2.242861 -9.816093 29.793673 0.544371 -5.472045 -10.917781 -0.036300 1.229200 -3.379700 1.563852 0.380153 -0.405438 -0.421982 0.139273 -3.494613 4.961591 -4.478617 18.685813 3.413800 -2.617800 13.761900 -85.991395 3.730879 26.776582 14.391695 -20.213013 -3.095142 -1.319065 -1.779803 13.794850 -7.125000 0.000000 0.000000 83.916133 -4.444592 15.640426 -15.060915 22.288522 -3.128454 0.419320 -0.211918 7.433293 7.125000 0.000000 0.000000 
18.484427 17.887048 -11.656806 0.857772 -46.751225 1.388710 -16.607509 -6.296436 -8.227289 0.208676 7.872734 23.707903 0.204116 0.229555 -6.964605 0.022600 -0.969900 -2.666100 19.720301 3.911954 -7.235546 -2.243136 -9.817068 29.796599 0.524771 -5.398536 -10.965478 -0.028000 1.079300 -2.967100 1.553238 0.364590 -0.381183 -0.434191 0.133988 -3.426968 4.786205 -4.382041 18.612901 3.301200 -2.568100 13.696000 -85.949301 3.624141 26.674882 14.389839 -20.208147 -3.094901 -1.261457 -1.810588 13.808276 -7.125000 0.000000 0.000000 83.930588 -4.365369 15.738688 -15.061524 22.290486 -3.128979 0.420626 -0.215034 7.449667 7.125000 0.000000 0.000000 
18.483226 17.884245 -11.656505 0.821738 -46.761458 1.420328 -16.575153 -6.419707 -8.174716 0.201771 7.863744 23.679510 0.189981 0.315104 -6.961018 0.013100 -0.739700 -2.032900 19.743845 3.965955 -7.214321 -2.244013 -9.818577 29.801812 0.503968 -5.313687 -10.988998 -0.021600 0.948600 -2.607500 1.537257 0.353921 -0.357282 -0.497986 0.129461 -3.349511 4.641324 -4.099253 18.410900 3.205200 -2.423500 13.472100 -85.800973 3.335553 26.832499 14.224213 -19.959051 -3.019524 -1.220197 -1.824297 13.621721 -7.125000 0.000000 0.000000 83.971093 -4.299451 15.780378 -15.083243 22.325345 -3.139824 0.415675 -0.212729 7.481118 7.125000 0.000000 0.000000 
18.483426 17.884345 -11.654804 0.896567 -46.787471 1.358182 -16.637337 -6.483151 -8.123401 0.196260 7.856865 23.658294 0.175588 0.410590 -6.991343 0.010600 -0.664600 -1.826300 19.647349 3.990366 -7.186665 -2.245868 -9.818159 29.803317 0.442478 -5.051852 -11.019657 -0.007900 0.574900 -1.579900 1.510986 0.362260 -0.369674 -0.539335 0.129812 -3.333942 4.687384 -4.336171 18.852535 3.210100 -2.526400 13.871800 -85.628167 2.958218 27.218382 13.925666 -19.507207 -2.882170 -1.228986 -1.829951 13.312083 -7.125000 0.000000 0.000000 83.980282 -4.342757 15.921276 -15.135827 22.397756 -3.161786 0.419557 -0.200943 7.376366 7.125000 0.000000 0.000000 
18.482626 17.887649 -11.652601 0.937953 -46.829610 1.319928 -16.682431 -6.412167 -8.119669 0.193388 7.852883 23.646136 0.156878 0.530892 -7.010175 0.019300 -0.897600 -2.467200 19.597302 4.101353 -7.117034 -2.245014 -9.814573 29.794178 0.398789 -4.866346 -11.045836 -0.000900 0.196900 -0.541100 1.505605 0.383783 -0.394004 -0.531566 0.140299 -3.417795 4.824588 -4.263927 18.608089 3.323400 -2.510000 13.612300 -85.632221 3.022914 27.235679 13.920397 -19.499690 -2.880109 -1.241492 -1.818117 13.356070 -7.125000 0.000000 0.000000 83.952882 -4.417132 16.033846 -15.145171 22.409708 -3.166229 0.417822 -0.200167 7.357222 7.125000 0.000000 0.000000 
18.482826 17.888750 -11.651701 0.940104 -46.842965 1.303886 -16.692882 -6.378182 -8.113603 0.193186 7.852043 23.643599 0.151185 0.559368 -6.990669 0.020600 -0.926400 -2.546300 19.594820 4.123338 -7.083938 -2.242226 -9.810015 29.779820 0.395241 -4.851927 -11.051603 -0.000400 0.123400 -0.339100 1.492391 0.402711 -0.379172 -0.567150 0.149360 -3.368692 4.811549 -4.407611 18.781002 3.295500 -2.567000 13.813900 -85.663599 3.149691 27.093170 14.058836 -19.709826 -2.944271 -1.215690 -1.826294 13.498313 -7.125000 0.000000 0.000000 83.957367 -4.315628 15.990344 -15.097325 22.348901 -3.148261 0.409600 -0.204021 7.366982 7.125000 0.000000 0.000000 
